<svg width="50" height="47" viewBox="0 0 50 47" fill="none" xmlns="http://www.w3.org/2000/svg">
<path d="M20.98 46.9928C17.4648 46.7393 13.6729 45.5283 11.0278 43.8145C10.3889 43.4005 10.191 43.2685 9.88727 43.0539C9.38485 42.6988 9.39639 42.7074 8.97031 42.3703C6.68337 40.561 5.10215 38.7023 3.59696 36.0542C3.31276 35.5543 2.41854 33.7582 2.41854 33.6873C2.41854 33.6586 2.40455 33.6196 2.38746 33.6004C2.35902 33.5686 2.15804 33.0806 1.92856 32.4861C0.563732 28.9503 0.240079 24.7502 1.02475 20.7569C1.10057 20.371 1.4935 18.788 1.56525 18.5794C1.65904 18.3066 1.71898 18.304 1.95297 18.5627C2.45866 19.1216 2.54406 19.3984 2.48746 20.295C2.39036 21.8332 2.51156 23.6259 2.80568 25.0021C3.00127 25.9172 2.91189 25.8329 3.42922 25.5899C3.57147 25.523 3.80375 25.4155 3.94539 25.3508C7.17226 23.8781 8.55717 22.7971 9.20082 21.2487C9.78155 19.8516 9.62519 18.8208 8.20188 14.6635C7.96489 13.9713 7.817 12.9435 7.95439 12.9435C8.00515 12.9435 8.13637 13.194 8.64448 14.261C9.09773 15.2127 9.80582 16.5933 9.97722 16.8593C10.0226 16.9298 10.1299 17.1059 10.2157 17.2508C10.3014 17.3956 10.3951 17.5335 10.4238 17.5572C10.4525 17.5808 10.4759 17.6149 10.4759 17.6328C10.4759 17.7221 11.0524 18.4273 11.4292 18.799C13.141 20.4875 15.0088 20.6629 18.7466 19.486L19.0151 19.4015L18.7918 19.2375C17.9002 18.5826 17.7747 18.4914 17.1353 18.0339C16.8823 17.853 16.5429 17.6074 16.381 17.4882C16.2191 17.369 15.4162 16.7882 14.5966 16.1975C13.7771 15.6069 13.029 15.0654 12.9342 14.9942C12.8394 14.9231 12.6572 14.791 12.5295 14.7007C12.4017 14.6104 12.2806 14.5229 12.2603 14.5063C12.2228 14.4754 10.5076 13.2329 9.57454 12.5607C9.29124 12.3566 8.69522 11.9256 8.25003 11.603C7.80485 11.2804 7.10121 10.7727 6.68638 10.4748C6.27156 10.1768 5.86183 9.88165 5.77587 9.81887C5.68991 9.75609 5.52744 9.63884 5.41481 9.55833C5.30218 9.47781 5.09494 9.32548 4.95427 9.21981C4.81361 9.11414 4.69051 9.02768 4.68073 9.02768C4.67094 9.02768 4.56771 8.95596 4.45133 8.86831C4.33495 8.78066 3.71821 8.3331 3.08079 7.87375C1.2052 6.5221 0.883187 6.28341 0.773337 6.16333C0.697802 6.08077 0.631988 5.94015 0.358291 5.27653C0.275275 5.07525 0.192081 4.87763 0.173414 4.83737C-0.0188114 4.42282 -0.0500376 4.23353 0.0738046 4.23353C0.163333 4.23353 1.51045 5.11048 3.08079 6.19103C3.49376 6.4752 4.5804 7.20828 4.68169 7.27104C4.73041 7.30125 4.91323 7.42475 5.08794 7.54552C5.26266 7.66629 5.4333 7.78157 5.46714 7.80169C5.50099 7.82182 5.76019 7.99627 6.04315 8.18936C6.79557 8.70282 7.2064 8.98119 8.02928 9.53511C8.43399 9.80754 9.08797 10.2485 9.48256 10.5151C10.2437 11.0293 12.1163 12.2898 12.4371 12.5038C12.5422 12.574 12.6338 12.644 12.6405 12.6594C12.6473 12.6747 12.6662 12.6874 12.6826 12.6874C12.7121 12.6874 12.8946 12.8073 13.7872 13.4131C14.0401 13.5848 14.6031 13.9638 15.0381 14.2554C15.4732 14.547 16.0252 14.9187 16.2649 15.0814C16.5046 15.2441 16.7272 15.3937 16.7595 15.4138C16.7918 15.4339 16.931 15.5286 17.0689 15.6242C17.2067 15.7198 17.3339 15.7981 17.3516 15.7981C17.3693 15.7981 17.4019 15.8198 17.424 15.8463C17.4462 15.8728 17.9987 16.2527 18.6519 16.6904C19.86 17.5001 21.2455 18.4371 21.4023 18.5505C21.504 18.624 21.5091 18.7709 21.4245 19.1832C21.3956 19.3241 21.3447 19.5959 21.3115 19.7871C21.2783 19.9783 21.2205 20.2994 21.1831 20.5007C21.1456 20.702 21.0792 21.0643 21.0355 21.3058C20.9919 21.5474 20.9253 21.9097 20.8877 22.111C20.8501 22.3122 20.7937 22.6169 20.7624 22.788C20.7311 22.9591 20.6734 23.272 20.6343 23.4833C20.5951 23.6947 20.5273 24.0652 20.4836 24.3068C20.4399 24.5483 20.3811 24.8694 20.3528 25.0204C20.3245 25.1713 20.267 25.4842 20.225 25.7157C20.183 25.9472 20.1176 26.3013 20.0797 26.5025C20.0417 26.7038 19.9756 27.0661 19.9327 27.3077C19.8898 27.5492 19.8311 27.8703 19.8021 28.0213C19.7732 28.1723 19.7153 28.4852 19.6736 28.7166C19.6318 28.9481 19.5646 29.3187 19.5241 29.5401C19.4836 29.7615 19.4266 30.0744 19.3974 30.2354C19.3683 30.3964 19.3109 30.6993 19.27 30.9084C19.1971 31.2811 19.1784 31.4614 19.2129 31.4614C19.2224 31.4614 19.4583 31.3638 19.7372 31.2445C20.016 31.1252 20.6746 30.8466 21.2008 30.6254C23.9747 29.4592 24.1574 29.3819 24.3547 29.2909C24.5501 29.2008 24.5785 29.1421 24.6414 28.6983C24.6614 28.5574 24.7017 28.3104 24.731 28.1494C24.7603 27.9884 24.8194 27.6261 24.8623 27.3443C24.9052 27.0625 24.9628 26.7084 24.9902 26.5574C25.0177 26.4065 25.0744 26.0648 25.1164 25.7981C25.1583 25.5314 25.227 25.095 25.2689 24.8283C25.3109 24.5616 25.3677 24.2198 25.3952 24.0689C25.4227 23.9179 25.4554 23.7121 25.4679 23.6114C25.4804 23.5108 25.5144 23.2967 25.5435 23.1357C25.5726 22.9746 25.6472 22.53 25.7093 22.1476C25.872 21.1461 25.9307 20.9582 26.0809 20.9582C26.097 20.9582 26.343 20.8676 26.6275 20.7569C26.9121 20.6462 27.1745 20.5556 27.2107 20.5556C27.3046 20.5556 27.6968 20.8567 28.1881 21.3058C28.2101 21.326 28.3522 21.4495 28.504 21.5803C28.6557 21.7111 28.8544 21.8859 28.9454 21.9689C29.0365 22.0518 29.1772 22.1753 29.2582 22.2433C29.3391 22.3113 29.4136 22.3765 29.4237 22.3881C29.4399 22.4067 29.8725 22.7847 30.1742 23.044C30.2329 23.0944 30.3074 23.1615 30.3398 23.1931C30.3722 23.2247 30.5808 23.4068 30.8034 23.5977C31.8413 24.488 32.7634 25.283 33.1777 25.6447C33.349 25.7943 33.5374 25.9579 33.5964 26.0083C33.9302 26.2938 34.2802 26.6498 34.2802 26.7039C34.2802 26.8293 32.3829 26.8713 32.2152 26.7496C32.1667 26.7143 32.0998 26.6691 32.0664 26.6489C32.033 26.6288 31.909 26.545 31.7909 26.4626C31.6727 26.3803 31.4933 26.2568 31.3921 26.1882C31.2909 26.1195 31.1998 26.0551 31.1897 26.045C31.1796 26.0349 31.0803 25.9662 30.969 25.8924C30.8577 25.8186 30.6093 25.6493 30.4171 25.5161C30.0606 25.2693 29.4428 24.8496 28.5224 24.2289L28.0074 23.8816L27.9819 24.0027C27.968 24.0693 27.9462 24.2555 27.9337 24.4165C27.9211 24.5776 27.8865 24.9095 27.8566 25.1542C27.8268 25.399 27.7876 25.7613 27.7696 25.9594C27.7216 26.4889 27.6295 27.3847 27.5653 27.9481C27.4352 29.09 27.3926 29.4876 27.3615 29.8543C27.305 30.5194 27.3018 30.5236 26.6459 30.8032C26.565 30.8377 26.4408 30.8916 26.37 30.923C26.2992 30.9544 26.0756 31.0486 25.8733 31.1324C25.6709 31.2162 25.4391 31.3139 25.3582 31.3496C25.2773 31.3852 25.0786 31.4691 24.9167 31.5359C24.7548 31.6027 24.4191 31.745 24.1706 31.8522C23.9221 31.9593 23.7088 32.0469 23.6966 32.0469C23.6845 32.0469 23.507 32.1191 23.3022 32.2073C23.0975 32.2955 22.7727 32.4334 22.5804 32.5138C22.3882 32.5941 22.024 32.7464 21.771 32.8522C21.5181 32.9579 21.2449 33.0733 21.1639 33.1087C21.083 33.144 20.876 33.2308 20.704 33.3016C20.3237 33.458 18.8701 34.0664 18.239 34.3333C16.96 34.8742 16.9643 34.8735 16.6599 34.5872C16.2961 34.2451 16.2928 34.3302 16.7514 32.2482C16.8223 31.9262 16.9038 31.5556 16.9324 31.4248C16.961 31.2939 17.0253 31.0058 17.0752 30.7843C17.1252 30.5629 17.1927 30.2583 17.2253 30.1073C17.4884 28.8864 17.7001 27.9166 17.7605 27.6553C17.8001 27.4843 17.8998 27.0314 17.982 26.6489C18.0642 26.2665 18.1552 25.8466 18.1842 25.7157C18.2131 25.5849 18.303 25.1732 18.384 24.8008C18.4649 24.4284 18.5566 24.0085 18.5877 23.8676C18.6188 23.7267 18.7357 23.1915 18.8474 22.6782C18.9592 22.1649 19.0822 21.605 19.1209 21.4339C19.1595 21.2628 19.225 20.9664 19.2665 20.7752C19.3079 20.584 19.3672 20.3139 19.3982 20.1751C19.4292 20.0363 19.4474 19.9156 19.4387 19.9069C19.4003 19.8687 16.9957 21.06 16.6202 21.3032C15.3568 22.1217 15.0204 22.4555 14.5804 23.3276C14.2479 23.9866 14.0463 24.9451 14.1007 25.608C14.108 25.6974 14.124 25.9188 14.1361 26.1C14.1978 27.0219 14.4837 28.1179 15.2436 30.3452C15.8447 32.107 15.8432 32.0931 15.3876 31.7509C15.1948 31.6061 15.1568 31.5528 14.9732 31.1696C13.3212 27.7227 12.774 26.8488 11.6509 25.8643C11.5814 25.8034 11.5133 25.7532 11.4995 25.7529C11.4858 25.7526 11.4505 25.7283 11.421 25.699C11.2926 25.5714 10.6732 25.2567 10.3104 25.1349C9.30184 24.7964 7.90901 24.8508 6.31845 25.2909C6.14645 25.3385 5.87327 25.4136 5.71139 25.4577C5.5495 25.5019 5.10248 25.6408 4.71801 25.7664C4.33353 25.8919 3.81827 26.0587 3.57298 26.137L3.127 26.2794L3.19263 26.5008C3.66421 28.0912 4.96501 30.7125 5.77073 31.6961C5.78863 31.718 5.96699 31.9436 6.16708 32.1975C8.33173 34.9445 11.2931 36.9888 14.5966 38.0165C15.4262 38.2746 16.5929 38.5359 17.356 38.6345C17.528 38.6567 17.7101 38.6824 17.7607 38.6917C17.8113 38.7009 18.0679 38.7237 18.331 38.7423C20.4573 38.893 22.1925 38.736 24.1809 38.2131C24.681 38.0816 25.8069 37.6799 26.5355 37.3729C30.3055 35.7849 33.5244 32.5747 35.2337 28.6983C35.2781 28.5977 35.3299 28.4824 35.3487 28.4422C35.7976 27.4856 36.3065 25.5428 36.5614 23.8129C36.6924 22.9231 36.7024 21.8097 36.5797 21.7633C36.4918 21.73 35.82 21.2861 35.0345 20.7422C34.8321 20.6021 34.4099 20.3125 34.0963 20.0987C33.7826 19.8849 33.3025 19.5552 33.0293 19.3661C32.7561 19.177 32.3008 18.8641 32.0175 18.6707C31.0762 18.028 30.6219 17.7171 30.3803 17.5501C30.2488 17.4592 29.8206 17.1657 29.4289 16.8979C28.549 16.2963 28.4671 16.2271 28.4671 16.0838C28.4671 15.9776 28.5817 15.2515 28.6509 14.9197C28.6697 14.8292 28.7268 14.5163 28.7776 14.2244C28.9206 13.4031 29.2701 11.4317 29.3486 11.0039C29.3873 10.7926 29.4462 10.4632 29.4795 10.272C29.5128 10.0808 29.5703 9.75963 29.6074 9.55834C29.6445 9.35706 29.7106 8.98652 29.7543 8.73492C29.876 8.03355 29.978 7.46131 30.1554 6.48423C30.1955 6.26282 30.2544 5.93346 30.2861 5.7523C30.4781 4.65622 30.5255 4.38204 30.5471 4.24112L30.5712 4.08402L30.4666 4.10937C30.3726 4.13211 29.6315 4.3984 29.2029 4.56342C29.1119 4.59849 28.8967 4.6792 28.7246 4.74279C28.5526 4.80639 28.3597 4.88251 28.296 4.91195C28.2322 4.94141 28.1616 4.96549 28.1391 4.96549C28.1166 4.96549 28.0694 4.98168 28.0343 5.00147C27.9992 5.02126 27.7635 5.11366 27.5105 5.2068C27.2576 5.29994 26.8685 5.4469 26.6459 5.53338C26.4233 5.61986 26.1667 5.71605 26.0756 5.74715C25.4728 5.953 25.521 5.88368 25.3983 6.72212C25.3645 6.95359 25.3054 7.32413 25.267 7.54554C25.1859 8.0135 25.0774 8.66468 24.9897 9.21069C24.9557 9.42203 24.8967 9.7761 24.8586 9.99751C24.718 10.8137 24.6705 11.1005 24.6405 11.315C24.5623 11.8745 24.3378 13.1255 24.2882 13.2777C24.238 13.432 23.4794 14.2157 23.2536 14.3467C23.1204 14.4239 23.1889 14.4772 21.3292 12.8494C20.7527 12.3448 19.7581 11.4802 19.1191 10.9281C17.0982 9.18213 16.5563 8.7031 16.5327 8.64201C16.489 8.5288 16.5103 8.40184 16.623 8.10246C16.6853 7.93705 16.7681 7.71526 16.807 7.60959C17.0361 6.98721 17.0588 6.94367 17.1551 6.94226C17.2151 6.94143 17.6827 7.24677 18.4149 7.76512C18.7846 8.02679 19.2563 8.35943 19.4632 8.50434C19.6701 8.64924 19.9222 8.82731 20.0234 8.90004C20.2658 9.07432 20.5474 9.27226 20.7777 9.43027C20.8804 9.50072 21.0932 9.64893 21.2506 9.75963C21.408 9.87034 21.5631 9.97738 21.5953 9.99751C21.6276 10.0176 21.8479 10.1707 22.0849 10.3376C22.322 10.5045 22.5207 10.6363 22.5266 10.6304C22.5404 10.6166 22.5701 10.3915 22.5981 10.089C22.6102 9.95817 22.6438 9.65351 22.6727 9.41197C22.7486 8.77711 22.8384 7.96209 22.8743 7.58214C22.9327 6.96229 23.0606 5.86231 23.1157 5.50481C23.1739 5.12745 23.1993 5.06777 23.5247 4.54462C23.6374 4.36347 23.7747 4.14115 23.8298 4.05057C24.2037 3.43561 24.2319 3.40958 24.6986 3.24858C24.8185 3.20721 25.0326 3.13054 25.1742 3.07826C25.3159 3.02596 25.498 2.96097 25.579 2.93384C25.6599 2.9067 25.9165 2.81559 26.1492 2.73138C26.3819 2.64717 26.6386 2.5566 26.7195 2.5301C26.8004 2.50358 27.0571 2.41336 27.2898 2.32956C27.5225 2.24576 27.7957 2.14808 27.8968 2.11249C27.998 2.07688 28.2712 1.97884 28.5039 1.89459C28.9363 1.73805 29.2832 1.61424 29.902 1.39571C30.0942 1.32781 30.3674 1.23005 30.5091 1.17845C30.6507 1.12686 30.9073 1.03662 31.0793 0.977912C31.2513 0.919209 31.5328 0.819824 31.7048 0.757054C33.2654 0.187539 33.9508 -0.0328591 34.0471 0.00390987C34.122 0.0324586 34.0989 0.384978 33.9865 0.92823C33.9456 1.12585 33.8872 1.41104 33.8567 1.56201C33.8261 1.71297 33.742 2.11644 33.6698 2.45862C33.5975 2.8008 33.5238 3.16311 33.5061 3.26375C33.4686 3.47603 33.2221 4.67401 33.0843 5.31315C33.0322 5.55469 32.9752 5.83465 32.9575 5.93529C32.9398 6.03594 32.9138 6.16357 32.8997 6.21892C32.8753 6.31518 32.8801 6.31956 33.0104 6.31956C33.1854 6.31956 33.4005 6.43795 34.1698 6.95784C36.9232 8.81857 39.1094 11.0964 40.7716 13.8364C41.1427 14.4482 41.3058 14.7475 41.6911 15.5236C42.2809 16.7116 42.9319 18.4001 43.1639 19.3434C43.1917 19.4566 43.2712 19.7715 43.3406 20.0433C43.5101 20.7071 43.6772 21.5331 43.7182 21.9097C43.7303 22.0204 43.7638 22.3004 43.7926 22.5318C43.8396 22.909 43.8656 23.197 43.9433 24.199L43.9662 24.4937L44.1177 24.5796C44.201 24.6269 44.3437 24.722 44.4347 24.7909C44.5258 24.8599 44.9231 25.1571 45.3177 25.4513C49.6932 28.7139 49.4997 28.5639 49.4612 28.6636C49.4351 28.7313 49.4981 28.7314 47.2493 28.6583C46.3995 28.6307 46.541 28.7031 44.2598 27.129C43.8894 26.8734 43.8997 26.8676 43.8683 27.3503C43.8315 27.9172 43.6986 28.8098 43.5097 29.7596C43.1244 31.6964 42.1919 34.2264 41.2706 35.8347C40.9943 36.3171 40.9257 36.4365 40.8403 36.5849C40.4679 37.231 39.5148 38.5644 38.9157 39.2773C38.3416 39.9603 37.4335 40.8726 36.7269 41.4761C36.6054 41.5798 36.4072 41.7495 36.2864 41.8533C36.0887 42.0231 35.4278 42.541 35.1979 42.7063C35.1485 42.7418 34.9921 42.8552 34.8505 42.9581C34.3583 43.3159 33.4303 43.9062 32.8453 44.2337C32.7138 44.3074 32.54 44.4054 32.459 44.4515C31.9297 44.7534 31.1035 45.1465 30.1043 45.5717C29.7472 45.7236 28.2617 46.2243 27.8232 46.3404C26.9132 46.5815 25.6669 46.8058 24.6775 46.9066C24.4448 46.9303 24.2213 46.9579 24.1809 46.9678C24.0927 46.9895 21.243 47.0118 20.98 46.9928ZM36.305 18.31C35.9635 16.8552 35.6498 15.906 35.1302 14.755C34.9353 14.3234 34.4995 13.4798 34.2982 13.1448C34.2015 12.9838 34.1039 12.8191 34.0813 12.7788C33.6742 12.0539 32.1336 10.0918 32.066 10.2121C32.0515 10.2378 32.0229 10.3565 32.0024 10.4758C31.9819 10.5952 31.931 10.8493 31.8892 11.0405C31.7204 11.8136 31.622 12.2749 31.5926 12.4312C31.5755 12.5217 31.5191 12.7935 31.4673 13.035C31.1366 14.5764 31.1055 14.7701 31.1723 14.8715C31.2228 14.9481 31.5563 15.2142 32.0585 15.5785C32.1834 15.669 32.793 16.1219 33.4133 16.5849C34.8406 17.6502 35.0582 17.8122 35.1819 17.9024C35.2372 17.9426 35.5246 18.1567 35.8207 18.3781C36.4361 18.8383 36.4293 18.8393 36.305 18.31Z" fill="#262626"/>
</svg>
